<mxfile host="app.diagrams.net" modified="2024-01-24T01:19:18.927Z" agent="Mozilla/5.0 (Windows NT 10.0; Win64; x64) AppleWebKit/537.36 (KHTML, like Gecko) Chrome/120.0.0.0 Safari/537.36" etag="5FKUs1dDsr_uE7PyCmbZ" version="23.0.0" type="device" pages="2">
  <diagram name="USECASE" id="1oT7VtpavyQXEe0fjs3A">
    <mxGraphModel dx="1434" dy="1949" grid="1" gridSize="10" guides="1" tooltips="1" connect="1" arrows="1" fold="1" page="1" pageScale="1" pageWidth="827" pageHeight="1169" math="0" shadow="0">
      <root>
        <mxCell id="0" />
        <mxCell id="1" parent="0" />
        <mxCell id="70QSGBtpCWmWg1ejvot2-9" value="비회원" style="shape=umlActor;verticalLabelPosition=bottom;verticalAlign=top;html=1;outlineConnect=0;" parent="1" vertex="1">
          <mxGeometry x="100" y="270" width="30" height="60" as="geometry" />
        </mxCell>
        <mxCell id="70QSGBtpCWmWg1ejvot2-10" value="회원" style="shape=umlActor;verticalLabelPosition=bottom;verticalAlign=top;html=1;outlineConnect=0;" parent="1" vertex="1">
          <mxGeometry x="90" y="395" width="30" height="60" as="geometry" />
        </mxCell>
        <mxCell id="70QSGBtpCWmWg1ejvot2-11" value="관리자" style="shape=umlActor;verticalLabelPosition=bottom;verticalAlign=top;html=1;outlineConnect=0;" parent="1" vertex="1">
          <mxGeometry x="910" y="355" width="30" height="60" as="geometry" />
        </mxCell>
        <mxCell id="70QSGBtpCWmWg1ejvot2-17" value="코리아아이티&lt;br&gt;SYSTEM" style="shape=umlFrame;whiteSpace=wrap;html=1;pointerEvents=0;width=90;height=40;" parent="1" vertex="1">
          <mxGeometry x="170" y="-180" width="660" height="1000" as="geometry" />
        </mxCell>
        <mxCell id="70QSGBtpCWmWg1ejvot2-18" value="회원가입" style="ellipse;whiteSpace=wrap;html=1;" parent="1" vertex="1">
          <mxGeometry x="270" y="240" width="60" height="40" as="geometry" />
        </mxCell>
        <mxCell id="70QSGBtpCWmWg1ejvot2-22" value="회원수정" style="ellipse;whiteSpace=wrap;html=1;" parent="1" vertex="1">
          <mxGeometry x="270" y="410" width="60" height="40" as="geometry" />
        </mxCell>
        <mxCell id="70QSGBtpCWmWg1ejvot2-23" value="회원탈퇴" style="ellipse;whiteSpace=wrap;html=1;" parent="1" vertex="1">
          <mxGeometry x="270" y="470" width="60" height="40" as="geometry" />
        </mxCell>
        <mxCell id="70QSGBtpCWmWg1ejvot2-24" value="회원정보조회" style="ellipse;whiteSpace=wrap;html=1;" parent="1" vertex="1">
          <mxGeometry x="270" y="540" width="60" height="40" as="geometry" />
        </mxCell>
        <mxCell id="70QSGBtpCWmWg1ejvot2-25" value="" style="endArrow=none;html=1;rounded=0;entryX=0;entryY=0.5;entryDx=0;entryDy=0;" parent="1" source="70QSGBtpCWmWg1ejvot2-9" target="70QSGBtpCWmWg1ejvot2-18" edge="1">
          <mxGeometry width="50" height="50" relative="1" as="geometry">
            <mxPoint x="390" y="450" as="sourcePoint" />
            <mxPoint x="440" y="400" as="targetPoint" />
          </mxGeometry>
        </mxCell>
        <mxCell id="70QSGBtpCWmWg1ejvot2-26" value="use" style="edgeLabel;html=1;align=center;verticalAlign=middle;resizable=0;points=[];" parent="70QSGBtpCWmWg1ejvot2-25" vertex="1" connectable="0">
          <mxGeometry x="0.1031" y="-1" relative="1" as="geometry">
            <mxPoint as="offset" />
          </mxGeometry>
        </mxCell>
        <mxCell id="70QSGBtpCWmWg1ejvot2-27" value="" style="endArrow=none;html=1;rounded=0;entryX=0.021;entryY=0.686;entryDx=0;entryDy=0;entryPerimeter=0;" parent="1" source="70QSGBtpCWmWg1ejvot2-10" target="70QSGBtpCWmWg1ejvot2-22" edge="1">
          <mxGeometry width="50" height="50" relative="1" as="geometry">
            <mxPoint x="140" y="309" as="sourcePoint" />
            <mxPoint x="280" y="300" as="targetPoint" />
          </mxGeometry>
        </mxCell>
        <mxCell id="70QSGBtpCWmWg1ejvot2-28" value="use" style="edgeLabel;html=1;align=center;verticalAlign=middle;resizable=0;points=[];" parent="70QSGBtpCWmWg1ejvot2-27" vertex="1" connectable="0">
          <mxGeometry x="0.1031" y="-1" relative="1" as="geometry">
            <mxPoint as="offset" />
          </mxGeometry>
        </mxCell>
        <mxCell id="70QSGBtpCWmWg1ejvot2-29" value="" style="endArrow=none;html=1;rounded=0;" parent="1" source="70QSGBtpCWmWg1ejvot2-10" target="70QSGBtpCWmWg1ejvot2-23" edge="1">
          <mxGeometry width="50" height="50" relative="1" as="geometry">
            <mxPoint x="140" y="410" as="sourcePoint" />
            <mxPoint x="290" y="310" as="targetPoint" />
          </mxGeometry>
        </mxCell>
        <mxCell id="70QSGBtpCWmWg1ejvot2-30" value="use" style="edgeLabel;html=1;align=center;verticalAlign=middle;resizable=0;points=[];" parent="70QSGBtpCWmWg1ejvot2-29" vertex="1" connectable="0">
          <mxGeometry x="0.1031" y="-1" relative="1" as="geometry">
            <mxPoint as="offset" />
          </mxGeometry>
        </mxCell>
        <mxCell id="70QSGBtpCWmWg1ejvot2-31" value="" style="endArrow=none;html=1;rounded=0;entryX=0;entryY=0.5;entryDx=0;entryDy=0;" parent="1" source="70QSGBtpCWmWg1ejvot2-10" target="70QSGBtpCWmWg1ejvot2-24" edge="1">
          <mxGeometry width="50" height="50" relative="1" as="geometry">
            <mxPoint x="140" y="426" as="sourcePoint" />
            <mxPoint x="300" y="320" as="targetPoint" />
          </mxGeometry>
        </mxCell>
        <mxCell id="70QSGBtpCWmWg1ejvot2-32" value="use" style="edgeLabel;html=1;align=center;verticalAlign=middle;resizable=0;points=[];" parent="70QSGBtpCWmWg1ejvot2-31" vertex="1" connectable="0">
          <mxGeometry x="0.1031" y="-1" relative="1" as="geometry">
            <mxPoint as="offset" />
          </mxGeometry>
        </mxCell>
        <mxCell id="70QSGBtpCWmWg1ejvot2-35" value="로그인" style="ellipse;whiteSpace=wrap;html=1;" parent="1" vertex="1">
          <mxGeometry x="430" y="430" width="60" height="40" as="geometry" />
        </mxCell>
        <mxCell id="70QSGBtpCWmWg1ejvot2-36" value="" style="endArrow=open;dashed=1;html=1;rounded=0;exitX=1;exitY=0.5;exitDx=0;exitDy=0;entryX=0;entryY=0.5;entryDx=0;entryDy=0;endFill=0;" parent="1" source="70QSGBtpCWmWg1ejvot2-22" target="70QSGBtpCWmWg1ejvot2-35" edge="1">
          <mxGeometry width="50" height="50" relative="1" as="geometry">
            <mxPoint x="390" y="530" as="sourcePoint" />
            <mxPoint x="440" y="480" as="targetPoint" />
          </mxGeometry>
        </mxCell>
        <mxCell id="70QSGBtpCWmWg1ejvot2-42" value="&amp;lt;&amp;lt;include&amp;gt;&amp;gt;" style="edgeLabel;html=1;align=center;verticalAlign=middle;resizable=0;points=[];" parent="70QSGBtpCWmWg1ejvot2-36" vertex="1" connectable="0">
          <mxGeometry x="-0.0863" y="2" relative="1" as="geometry">
            <mxPoint as="offset" />
          </mxGeometry>
        </mxCell>
        <mxCell id="70QSGBtpCWmWg1ejvot2-37" value="" style="endArrow=open;dashed=1;html=1;rounded=0;exitX=0.983;exitY=0.4;exitDx=0;exitDy=0;entryX=-0.017;entryY=0.664;entryDx=0;entryDy=0;exitPerimeter=0;entryPerimeter=0;endFill=0;" parent="1" source="70QSGBtpCWmWg1ejvot2-23" target="70QSGBtpCWmWg1ejvot2-35" edge="1">
          <mxGeometry width="50" height="50" relative="1" as="geometry">
            <mxPoint x="340" y="440" as="sourcePoint" />
            <mxPoint x="440" y="450" as="targetPoint" />
          </mxGeometry>
        </mxCell>
        <mxCell id="70QSGBtpCWmWg1ejvot2-40" value="&amp;lt;&amp;lt;include&amp;gt;&amp;gt;" style="edgeLabel;html=1;align=center;verticalAlign=middle;resizable=0;points=[];" parent="70QSGBtpCWmWg1ejvot2-37" vertex="1" connectable="0">
          <mxGeometry x="-0.202" relative="1" as="geometry">
            <mxPoint as="offset" />
          </mxGeometry>
        </mxCell>
        <mxCell id="70QSGBtpCWmWg1ejvot2-38" value="" style="endArrow=open;dashed=1;html=1;rounded=0;exitX=1;exitY=0.5;exitDx=0;exitDy=0;entryX=0.05;entryY=0.75;entryDx=0;entryDy=0;entryPerimeter=0;endFill=0;" parent="1" source="70QSGBtpCWmWg1ejvot2-24" target="70QSGBtpCWmWg1ejvot2-35" edge="1">
          <mxGeometry width="50" height="50" relative="1" as="geometry">
            <mxPoint x="350" y="450" as="sourcePoint" />
            <mxPoint x="450" y="460" as="targetPoint" />
          </mxGeometry>
        </mxCell>
        <mxCell id="70QSGBtpCWmWg1ejvot2-39" value="&amp;lt;&amp;lt;include&amp;gt;&amp;gt;" style="edgeLabel;html=1;align=center;verticalAlign=middle;resizable=0;points=[];" parent="70QSGBtpCWmWg1ejvot2-38" vertex="1" connectable="0">
          <mxGeometry x="0.473" y="-3" relative="1" as="geometry">
            <mxPoint x="-18" y="19" as="offset" />
          </mxGeometry>
        </mxCell>
        <mxCell id="70QSGBtpCWmWg1ejvot2-43" value="학원소개" style="ellipse;whiteSpace=wrap;html=1;" parent="1" vertex="1">
          <mxGeometry x="270" y="330" width="60" height="40" as="geometry" />
        </mxCell>
        <mxCell id="70QSGBtpCWmWg1ejvot2-44" value="" style="endArrow=none;html=1;rounded=0;entryX=0;entryY=0.25;entryDx=0;entryDy=0;entryPerimeter=0;" parent="1" source="70QSGBtpCWmWg1ejvot2-9" target="70QSGBtpCWmWg1ejvot2-43" edge="1">
          <mxGeometry width="50" height="50" relative="1" as="geometry">
            <mxPoint x="140" y="306" as="sourcePoint" />
            <mxPoint x="300" y="260" as="targetPoint" />
          </mxGeometry>
        </mxCell>
        <mxCell id="70QSGBtpCWmWg1ejvot2-45" value="use" style="edgeLabel;html=1;align=center;verticalAlign=middle;resizable=0;points=[];" parent="70QSGBtpCWmWg1ejvot2-44" vertex="1" connectable="0">
          <mxGeometry x="0.1031" y="-1" relative="1" as="geometry">
            <mxPoint as="offset" />
          </mxGeometry>
        </mxCell>
        <mxCell id="70QSGBtpCWmWg1ejvot2-46" value="" style="endArrow=none;html=1;rounded=0;entryX=-0.007;entryY=0.679;entryDx=0;entryDy=0;entryPerimeter=0;" parent="1" source="70QSGBtpCWmWg1ejvot2-10" target="70QSGBtpCWmWg1ejvot2-43" edge="1">
          <mxGeometry width="50" height="50" relative="1" as="geometry">
            <mxPoint x="140" y="315" as="sourcePoint" />
            <mxPoint x="280" y="360" as="targetPoint" />
          </mxGeometry>
        </mxCell>
        <mxCell id="70QSGBtpCWmWg1ejvot2-47" value="use" style="edgeLabel;html=1;align=center;verticalAlign=middle;resizable=0;points=[];" parent="70QSGBtpCWmWg1ejvot2-46" vertex="1" connectable="0">
          <mxGeometry x="0.1031" y="-1" relative="1" as="geometry">
            <mxPoint as="offset" />
          </mxGeometry>
        </mxCell>
        <mxCell id="70QSGBtpCWmWg1ejvot2-52" value="" style="edgeStyle=orthogonalEdgeStyle;rounded=0;orthogonalLoop=1;jettySize=auto;html=1;endArrow=block;endFill=0;" parent="1" source="70QSGBtpCWmWg1ejvot2-48" target="70QSGBtpCWmWg1ejvot2-43" edge="1">
          <mxGeometry relative="1" as="geometry" />
        </mxCell>
        <mxCell id="70QSGBtpCWmWg1ejvot2-48" value="소개" style="ellipse;whiteSpace=wrap;html=1;" parent="1" vertex="1">
          <mxGeometry x="374" y="300" width="56" height="30" as="geometry" />
        </mxCell>
        <mxCell id="70QSGBtpCWmWg1ejvot2-51" value="" style="edgeStyle=orthogonalEdgeStyle;rounded=0;orthogonalLoop=1;jettySize=auto;html=1;endArrow=block;endFill=0;" parent="1" source="70QSGBtpCWmWg1ejvot2-49" target="70QSGBtpCWmWg1ejvot2-43" edge="1">
          <mxGeometry relative="1" as="geometry" />
        </mxCell>
        <mxCell id="70QSGBtpCWmWg1ejvot2-49" value="연혁" style="ellipse;whiteSpace=wrap;html=1;" parent="1" vertex="1">
          <mxGeometry x="374" y="335" width="56" height="30" as="geometry" />
        </mxCell>
        <mxCell id="70QSGBtpCWmWg1ejvot2-53" value="" style="edgeStyle=orthogonalEdgeStyle;rounded=0;orthogonalLoop=1;jettySize=auto;html=1;endArrow=block;endFill=0;" parent="1" source="70QSGBtpCWmWg1ejvot2-50" target="70QSGBtpCWmWg1ejvot2-43" edge="1">
          <mxGeometry relative="1" as="geometry" />
        </mxCell>
        <mxCell id="70QSGBtpCWmWg1ejvot2-50" value="보도자료" style="ellipse;whiteSpace=wrap;html=1;" parent="1" vertex="1">
          <mxGeometry x="374" y="370" width="56" height="30" as="geometry" />
        </mxCell>
        <mxCell id="70QSGBtpCWmWg1ejvot2-55" value="" style="edgeStyle=orthogonalEdgeStyle;rounded=0;orthogonalLoop=1;jettySize=auto;html=1;endArrow=open;endFill=0;dashed=1;" parent="1" source="70QSGBtpCWmWg1ejvot2-54" target="70QSGBtpCWmWg1ejvot2-43" edge="1">
          <mxGeometry relative="1" as="geometry">
            <Array as="points">
              <mxPoint x="401" y="290" />
              <mxPoint x="300" y="290" />
            </Array>
          </mxGeometry>
        </mxCell>
        <mxCell id="70QSGBtpCWmWg1ejvot2-56" value="&amp;lt;&amp;lt;extends&amp;gt;&amp;gt;" style="edgeLabel;html=1;align=center;verticalAlign=middle;resizable=0;points=[];" parent="70QSGBtpCWmWg1ejvot2-55" vertex="1" connectable="0">
          <mxGeometry x="-0.1642" y="-1" relative="1" as="geometry">
            <mxPoint as="offset" />
          </mxGeometry>
        </mxCell>
        <mxCell id="70QSGBtpCWmWg1ejvot2-54" value="&lt;font style=&quot;font-size: 9px;&quot;&gt;수강료 조회&lt;/font&gt;" style="ellipse;whiteSpace=wrap;html=1;" parent="1" vertex="1">
          <mxGeometry x="374" y="255" width="54" height="30" as="geometry" />
        </mxCell>
        <mxCell id="eNOxvGE6mksWMTdkX6A9-2" value="회원관리" style="ellipse;whiteSpace=wrap;html=1;" parent="1" vertex="1">
          <mxGeometry x="670" y="257.5" width="60" height="40" as="geometry" />
        </mxCell>
        <mxCell id="eNOxvGE6mksWMTdkX6A9-3" value="강사관리" style="ellipse;whiteSpace=wrap;html=1;" parent="1" vertex="1">
          <mxGeometry x="670" y="352.5" width="60" height="40" as="geometry" />
        </mxCell>
        <mxCell id="eNOxvGE6mksWMTdkX6A9-4" value="통계정보" style="ellipse;whiteSpace=wrap;html=1;" parent="1" vertex="1">
          <mxGeometry x="670" y="450" width="60" height="40" as="geometry" />
        </mxCell>
        <mxCell id="eNOxvGE6mksWMTdkX6A9-5" value="" style="endArrow=none;html=1;rounded=0;entryX=1;entryY=1;entryDx=0;entryDy=0;" parent="1" source="70QSGBtpCWmWg1ejvot2-11" target="eNOxvGE6mksWMTdkX6A9-2" edge="1">
          <mxGeometry width="50" height="50" relative="1" as="geometry">
            <mxPoint x="140" y="306" as="sourcePoint" />
            <mxPoint x="280" y="270" as="targetPoint" />
          </mxGeometry>
        </mxCell>
        <mxCell id="eNOxvGE6mksWMTdkX6A9-6" value="use" style="edgeLabel;html=1;align=center;verticalAlign=middle;resizable=0;points=[];" parent="eNOxvGE6mksWMTdkX6A9-5" vertex="1" connectable="0">
          <mxGeometry x="0.1031" y="-1" relative="1" as="geometry">
            <mxPoint as="offset" />
          </mxGeometry>
        </mxCell>
        <mxCell id="eNOxvGE6mksWMTdkX6A9-7" value="" style="endArrow=none;html=1;rounded=0;entryX=0.994;entryY=0.396;entryDx=0;entryDy=0;entryPerimeter=0;" parent="1" source="70QSGBtpCWmWg1ejvot2-11" target="eNOxvGE6mksWMTdkX6A9-3" edge="1">
          <mxGeometry width="50" height="50" relative="1" as="geometry">
            <mxPoint x="780" y="384" as="sourcePoint" />
            <mxPoint x="671" y="304" as="targetPoint" />
          </mxGeometry>
        </mxCell>
        <mxCell id="eNOxvGE6mksWMTdkX6A9-8" value="use" style="edgeLabel;html=1;align=center;verticalAlign=middle;resizable=0;points=[];" parent="eNOxvGE6mksWMTdkX6A9-7" vertex="1" connectable="0">
          <mxGeometry x="0.1031" y="-1" relative="1" as="geometry">
            <mxPoint as="offset" />
          </mxGeometry>
        </mxCell>
        <mxCell id="eNOxvGE6mksWMTdkX6A9-9" value="" style="endArrow=none;html=1;rounded=0;entryX=0.982;entryY=0.314;entryDx=0;entryDy=0;entryPerimeter=0;" parent="1" source="70QSGBtpCWmWg1ejvot2-11" target="eNOxvGE6mksWMTdkX6A9-4" edge="1">
          <mxGeometry width="50" height="50" relative="1" as="geometry">
            <mxPoint x="780" y="393" as="sourcePoint" />
            <mxPoint x="680" y="381" as="targetPoint" />
          </mxGeometry>
        </mxCell>
        <mxCell id="eNOxvGE6mksWMTdkX6A9-10" value="use" style="edgeLabel;html=1;align=center;verticalAlign=middle;resizable=0;points=[];" parent="eNOxvGE6mksWMTdkX6A9-9" vertex="1" connectable="0">
          <mxGeometry x="0.1031" y="-1" relative="1" as="geometry">
            <mxPoint as="offset" />
          </mxGeometry>
        </mxCell>
        <mxCell id="eNOxvGE6mksWMTdkX6A9-14" value="" style="edgeStyle=orthogonalEdgeStyle;rounded=0;orthogonalLoop=1;jettySize=auto;html=1;endArrow=block;endFill=0;" parent="1" source="eNOxvGE6mksWMTdkX6A9-12" target="eNOxvGE6mksWMTdkX6A9-2" edge="1">
          <mxGeometry relative="1" as="geometry">
            <Array as="points">
              <mxPoint x="610" y="277.5" />
            </Array>
          </mxGeometry>
        </mxCell>
        <mxCell id="eNOxvGE6mksWMTdkX6A9-20" value="" style="edgeStyle=orthogonalEdgeStyle;rounded=0;orthogonalLoop=1;jettySize=auto;html=1;endArrow=block;endFill=0;" parent="1" source="eNOxvGE6mksWMTdkX6A9-11" target="eNOxvGE6mksWMTdkX6A9-2" edge="1">
          <mxGeometry relative="1" as="geometry">
            <Array as="points">
              <mxPoint x="620" y="229.5" />
              <mxPoint x="620" y="277.5" />
            </Array>
          </mxGeometry>
        </mxCell>
        <mxCell id="eNOxvGE6mksWMTdkX6A9-29" value="" style="edgeStyle=orthogonalEdgeStyle;rounded=0;orthogonalLoop=1;jettySize=auto;html=1;endArrow=none;endFill=0;startArrow=block;startFill=0;" parent="1" source="eNOxvGE6mksWMTdkX6A9-11" target="eNOxvGE6mksWMTdkX6A9-22" edge="1">
          <mxGeometry relative="1" as="geometry" />
        </mxCell>
        <mxCell id="eNOxvGE6mksWMTdkX6A9-30" value="" style="edgeStyle=orthogonalEdgeStyle;rounded=0;orthogonalLoop=1;jettySize=auto;html=1;endArrow=none;endFill=0;startArrow=block;startFill=0;" parent="1" source="eNOxvGE6mksWMTdkX6A9-11" target="eNOxvGE6mksWMTdkX6A9-21" edge="1">
          <mxGeometry relative="1" as="geometry" />
        </mxCell>
        <mxCell id="eNOxvGE6mksWMTdkX6A9-11" value="회원조회" style="ellipse;whiteSpace=wrap;html=1;" parent="1" vertex="1">
          <mxGeometry x="540" y="207.5" width="60" height="45" as="geometry" />
        </mxCell>
        <mxCell id="eNOxvGE6mksWMTdkX6A9-16" value="" style="edgeStyle=orthogonalEdgeStyle;rounded=0;orthogonalLoop=1;jettySize=auto;html=1;endArrow=block;endFill=0;" parent="1" source="eNOxvGE6mksWMTdkX6A9-13" target="eNOxvGE6mksWMTdkX6A9-2" edge="1">
          <mxGeometry relative="1" as="geometry">
            <Array as="points">
              <mxPoint x="620" y="332.5" />
              <mxPoint x="620" y="277.5" />
            </Array>
          </mxGeometry>
        </mxCell>
        <mxCell id="eNOxvGE6mksWMTdkX6A9-12" value="회원수정" style="ellipse;whiteSpace=wrap;html=1;" parent="1" vertex="1">
          <mxGeometry x="540" y="257.5" width="60" height="40" as="geometry" />
        </mxCell>
        <mxCell id="eNOxvGE6mksWMTdkX6A9-13" value="회원삭제" style="ellipse;whiteSpace=wrap;html=1;" parent="1" vertex="1">
          <mxGeometry x="540" y="307.5" width="60" height="40" as="geometry" />
        </mxCell>
        <mxCell id="eNOxvGE6mksWMTdkX6A9-21" value="키워드" style="ellipse;whiteSpace=wrap;html=1;" parent="1" vertex="1">
          <mxGeometry x="510" y="127.5" width="40" height="45" as="geometry" />
        </mxCell>
        <mxCell id="eNOxvGE6mksWMTdkX6A9-22" value="전체" style="ellipse;whiteSpace=wrap;html=1;" parent="1" vertex="1">
          <mxGeometry x="590" y="127.5" width="40" height="45" as="geometry" />
        </mxCell>
        <mxCell id="eNOxvGE6mksWMTdkX6A9-32" value="수강신청" style="ellipse;whiteSpace=wrap;html=1;" parent="1" vertex="1">
          <mxGeometry x="270" y="60" width="60" height="40" as="geometry" />
        </mxCell>
        <mxCell id="eNOxvGE6mksWMTdkX6A9-33" value="강의조회" style="ellipse;whiteSpace=wrap;html=1;" parent="1" vertex="1">
          <mxGeometry x="270" y="150" width="60" height="40" as="geometry" />
        </mxCell>
        <mxCell id="eNOxvGE6mksWMTdkX6A9-50" value="" style="edgeStyle=orthogonalEdgeStyle;rounded=0;orthogonalLoop=1;jettySize=auto;html=1;endArrow=block;endFill=0;" parent="1" source="eNOxvGE6mksWMTdkX6A9-34" target="eNOxvGE6mksWMTdkX6A9-42" edge="1">
          <mxGeometry relative="1" as="geometry" />
        </mxCell>
        <mxCell id="YK5wTkmuDBtrDPHsWVAm-8" value="" style="edgeStyle=orthogonalEdgeStyle;rounded=0;orthogonalLoop=1;jettySize=auto;html=1;endArrow=none;endFill=0;startArrow=open;startFill=0;dashed=1;dashPattern=8 8;" parent="1" source="eNOxvGE6mksWMTdkX6A9-34" target="eNOxvGE6mksWMTdkX6A9-35" edge="1">
          <mxGeometry relative="1" as="geometry" />
        </mxCell>
        <mxCell id="YK5wTkmuDBtrDPHsWVAm-9" value="&amp;lt;&amp;lt;include&amp;gt;&amp;gt;" style="edgeLabel;html=1;align=center;verticalAlign=middle;resizable=0;points=[];" parent="YK5wTkmuDBtrDPHsWVAm-8" vertex="1" connectable="0">
          <mxGeometry x="0.1357" y="-1" relative="1" as="geometry">
            <mxPoint as="offset" />
          </mxGeometry>
        </mxCell>
        <mxCell id="eNOxvGE6mksWMTdkX6A9-34" value="결제방식" style="ellipse;whiteSpace=wrap;html=1;" parent="1" vertex="1">
          <mxGeometry x="510" y="-20" width="60" height="40" as="geometry" />
        </mxCell>
        <mxCell id="eNOxvGE6mksWMTdkX6A9-35" value="결제 정보&lt;br&gt;확인" style="ellipse;whiteSpace=wrap;html=1;" parent="1" vertex="1">
          <mxGeometry x="510" y="60" width="60" height="40" as="geometry" />
        </mxCell>
        <mxCell id="eNOxvGE6mksWMTdkX6A9-36" value="결제시스템" style="rounded=0;whiteSpace=wrap;html=1;" parent="1" vertex="1">
          <mxGeometry x="860" y="-100" width="120" height="60" as="geometry" />
        </mxCell>
        <mxCell id="eNOxvGE6mksWMTdkX6A9-37" value="" style="endArrow=none;html=1;rounded=0;entryX=0;entryY=0.5;entryDx=0;entryDy=0;exitX=1;exitY=0.5;exitDx=0;exitDy=0;" parent="1" source="eNOxvGE6mksWMTdkX6A9-35" target="eNOxvGE6mksWMTdkX6A9-36" edge="1">
          <mxGeometry width="50" height="50" relative="1" as="geometry">
            <mxPoint x="640" y="20" as="sourcePoint" />
            <mxPoint x="600" y="-30" as="targetPoint" />
          </mxGeometry>
        </mxCell>
        <mxCell id="eNOxvGE6mksWMTdkX6A9-38" value="use" style="edgeLabel;html=1;align=center;verticalAlign=middle;resizable=0;points=[];" parent="eNOxvGE6mksWMTdkX6A9-37" vertex="1" connectable="0">
          <mxGeometry x="-0.0728" y="-2" relative="1" as="geometry">
            <mxPoint as="offset" />
          </mxGeometry>
        </mxCell>
        <mxCell id="eNOxvGE6mksWMTdkX6A9-45" value="" style="edgeStyle=orthogonalEdgeStyle;rounded=0;orthogonalLoop=1;jettySize=auto;html=1;endArrow=block;endFill=0;" parent="1" source="eNOxvGE6mksWMTdkX6A9-41" target="eNOxvGE6mksWMTdkX6A9-32" edge="1">
          <mxGeometry relative="1" as="geometry" />
        </mxCell>
        <mxCell id="eNOxvGE6mksWMTdkX6A9-41" value="강의상세 조회" style="ellipse;whiteSpace=wrap;html=1;" parent="1" vertex="1">
          <mxGeometry x="370" y="60" width="60" height="40" as="geometry" />
        </mxCell>
        <mxCell id="eNOxvGE6mksWMTdkX6A9-46" value="" style="edgeStyle=orthogonalEdgeStyle;rounded=0;orthogonalLoop=1;jettySize=auto;html=1;endArrow=block;endFill=0;" parent="1" source="eNOxvGE6mksWMTdkX6A9-42" target="eNOxvGE6mksWMTdkX6A9-41" edge="1">
          <mxGeometry relative="1" as="geometry" />
        </mxCell>
        <mxCell id="eNOxvGE6mksWMTdkX6A9-42" value="결제 요청" style="ellipse;whiteSpace=wrap;html=1;" parent="1" vertex="1">
          <mxGeometry x="410" y="-20" width="60" height="40" as="geometry" />
        </mxCell>
        <mxCell id="eNOxvGE6mksWMTdkX6A9-43" value="" style="endArrow=open;dashed=1;html=1;rounded=0;exitX=0.971;exitY=0.684;exitDx=0;exitDy=0;entryX=0.5;entryY=0;entryDx=0;entryDy=0;endFill=0;exitPerimeter=0;" parent="1" source="eNOxvGE6mksWMTdkX6A9-32" target="70QSGBtpCWmWg1ejvot2-35" edge="1">
          <mxGeometry width="50" height="50" relative="1" as="geometry">
            <mxPoint x="340" y="440" as="sourcePoint" />
            <mxPoint x="440" y="460" as="targetPoint" />
            <Array as="points">
              <mxPoint x="470" y="200" />
            </Array>
          </mxGeometry>
        </mxCell>
        <mxCell id="eNOxvGE6mksWMTdkX6A9-44" value="&amp;lt;&amp;lt;include&amp;gt;&amp;gt;" style="edgeLabel;html=1;align=center;verticalAlign=middle;resizable=0;points=[];" parent="eNOxvGE6mksWMTdkX6A9-43" vertex="1" connectable="0">
          <mxGeometry x="-0.0863" y="2" relative="1" as="geometry">
            <mxPoint x="-2" y="23" as="offset" />
          </mxGeometry>
        </mxCell>
        <mxCell id="eNOxvGE6mksWMTdkX6A9-49" value="" style="edgeStyle=orthogonalEdgeStyle;rounded=0;orthogonalLoop=1;jettySize=auto;html=1;endArrow=block;endFill=0;" parent="1" source="eNOxvGE6mksWMTdkX6A9-48" target="eNOxvGE6mksWMTdkX6A9-41" edge="1">
          <mxGeometry relative="1" as="geometry" />
        </mxCell>
        <mxCell id="eNOxvGE6mksWMTdkX6A9-48" value="장바구니" style="ellipse;whiteSpace=wrap;html=1;" parent="1" vertex="1">
          <mxGeometry x="330" y="-20" width="60" height="40" as="geometry" />
        </mxCell>
        <mxCell id="eNOxvGE6mksWMTdkX6A9-54" value="" style="edgeStyle=orthogonalEdgeStyle;rounded=0;orthogonalLoop=1;jettySize=auto;html=1;endArrow=block;endFill=0;" parent="1" source="eNOxvGE6mksWMTdkX6A9-51" target="eNOxvGE6mksWMTdkX6A9-34" edge="1">
          <mxGeometry relative="1" as="geometry">
            <Array as="points">
              <mxPoint x="485" y="-40" />
              <mxPoint x="540" y="-40" />
            </Array>
          </mxGeometry>
        </mxCell>
        <mxCell id="eNOxvGE6mksWMTdkX6A9-51" value="신용카드&lt;br&gt;" style="ellipse;whiteSpace=wrap;html=1;" parent="1" vertex="1">
          <mxGeometry x="460" y="-90" width="50" height="40" as="geometry" />
        </mxCell>
        <mxCell id="eNOxvGE6mksWMTdkX6A9-56" value="" style="edgeStyle=orthogonalEdgeStyle;rounded=0;orthogonalLoop=1;jettySize=auto;html=1;endArrow=block;endFill=0;" parent="1" source="eNOxvGE6mksWMTdkX6A9-53" target="eNOxvGE6mksWMTdkX6A9-34" edge="1">
          <mxGeometry relative="1" as="geometry" />
        </mxCell>
        <mxCell id="eNOxvGE6mksWMTdkX6A9-61" value="" style="edgeStyle=orthogonalEdgeStyle;rounded=0;orthogonalLoop=1;jettySize=auto;html=1;endArrow=block;endFill=0;" parent="1" source="eNOxvGE6mksWMTdkX6A9-52" target="eNOxvGE6mksWMTdkX6A9-34" edge="1">
          <mxGeometry relative="1" as="geometry">
            <Array as="points">
              <mxPoint x="540" y="-40" />
            </Array>
          </mxGeometry>
        </mxCell>
        <mxCell id="eNOxvGE6mksWMTdkX6A9-52" value="휴대폰" style="ellipse;whiteSpace=wrap;html=1;" parent="1" vertex="1">
          <mxGeometry x="570" y="-90" width="50" height="40" as="geometry" />
        </mxCell>
        <mxCell id="eNOxvGE6mksWMTdkX6A9-55" value="" style="edgeStyle=orthogonalEdgeStyle;rounded=0;orthogonalLoop=1;jettySize=auto;html=1;endArrow=block;endFill=0;" parent="1" source="eNOxvGE6mksWMTdkX6A9-53" target="eNOxvGE6mksWMTdkX6A9-34" edge="1">
          <mxGeometry relative="1" as="geometry" />
        </mxCell>
        <mxCell id="eNOxvGE6mksWMTdkX6A9-53" value="무통장" style="ellipse;whiteSpace=wrap;html=1;" parent="1" vertex="1">
          <mxGeometry x="515" y="-90" width="50" height="40" as="geometry" />
        </mxCell>
        <mxCell id="YK5wTkmuDBtrDPHsWVAm-1" value="월별" style="ellipse;whiteSpace=wrap;html=1;" parent="1" vertex="1">
          <mxGeometry x="570" y="415" width="60" height="40" as="geometry" />
        </mxCell>
        <mxCell id="YK5wTkmuDBtrDPHsWVAm-2" value="일별" style="ellipse;whiteSpace=wrap;html=1;" parent="1" vertex="1">
          <mxGeometry x="570" y="470" width="60" height="40" as="geometry" />
        </mxCell>
        <mxCell id="YK5wTkmuDBtrDPHsWVAm-3" value="주별" style="ellipse;whiteSpace=wrap;html=1;" parent="1" vertex="1">
          <mxGeometry x="570" y="530" width="60" height="40" as="geometry" />
        </mxCell>
        <mxCell id="LYjYmKjkTTXxG6uQtJ02-1" value="강의정보 관리" style="ellipse;whiteSpace=wrap;html=1;" vertex="1" parent="1">
          <mxGeometry x="665" y="510" width="65" height="40" as="geometry" />
        </mxCell>
        <mxCell id="LYjYmKjkTTXxG6uQtJ02-2" value="강의정보 수정" style="ellipse;whiteSpace=wrap;html=1;" vertex="1" parent="1">
          <mxGeometry x="565" y="600" width="65" height="40" as="geometry" />
        </mxCell>
        <mxCell id="LYjYmKjkTTXxG6uQtJ02-3" value="강의정보 조회" style="ellipse;whiteSpace=wrap;html=1;" vertex="1" parent="1">
          <mxGeometry x="640" y="600" width="65" height="40" as="geometry" />
        </mxCell>
        <mxCell id="LYjYmKjkTTXxG6uQtJ02-4" value="강의정보 삭제" style="ellipse;whiteSpace=wrap;html=1;" vertex="1" parent="1">
          <mxGeometry x="720" y="600" width="65" height="40" as="geometry" />
        </mxCell>
        <mxCell id="LYjYmKjkTTXxG6uQtJ02-5" value="강의정보 추가" style="ellipse;whiteSpace=wrap;html=1;" vertex="1" parent="1">
          <mxGeometry x="485" y="600" width="65" height="40" as="geometry" />
        </mxCell>
        <mxCell id="LYjYmKjkTTXxG6uQtJ02-6" value="강의 전체" style="ellipse;whiteSpace=wrap;html=1;" vertex="1" parent="1">
          <mxGeometry x="605" y="660" width="65" height="40" as="geometry" />
        </mxCell>
        <mxCell id="LYjYmKjkTTXxG6uQtJ02-7" value="강의 부분" style="ellipse;whiteSpace=wrap;html=1;" vertex="1" parent="1">
          <mxGeometry x="680" y="660" width="65" height="40" as="geometry" />
        </mxCell>
        <mxCell id="LYjYmKjkTTXxG6uQtJ02-8" value="" style="endArrow=none;html=1;rounded=0;entryX=1;entryY=0.5;entryDx=0;entryDy=0;" edge="1" parent="1" target="LYjYmKjkTTXxG6uQtJ02-1">
          <mxGeometry width="50" height="50" relative="1" as="geometry">
            <mxPoint x="910" y="400" as="sourcePoint" />
            <mxPoint x="739" y="473" as="targetPoint" />
          </mxGeometry>
        </mxCell>
        <mxCell id="LYjYmKjkTTXxG6uQtJ02-9" value="use" style="edgeLabel;html=1;align=center;verticalAlign=middle;resizable=0;points=[];" vertex="1" connectable="0" parent="LYjYmKjkTTXxG6uQtJ02-8">
          <mxGeometry x="0.1031" y="-1" relative="1" as="geometry">
            <mxPoint as="offset" />
          </mxGeometry>
        </mxCell>
      </root>
    </mxGraphModel>
  </diagram>
  <diagram id="Y_ki349quEklnEqT9tOT" name="요구사항정리">
    <mxGraphModel dx="1434" dy="780" grid="1" gridSize="10" guides="1" tooltips="1" connect="1" arrows="1" fold="1" page="1" pageScale="1" pageWidth="827" pageHeight="1169" math="0" shadow="0">
      <root>
        <mxCell id="0" />
        <mxCell id="1" parent="0" />
        <mxCell id="fQJDZmtFNCd7QhIIV3Hv-1" value="" style="rounded=0;whiteSpace=wrap;html=1;" vertex="1" parent="1">
          <mxGeometry x="10" y="40" width="810" height="60" as="geometry" />
        </mxCell>
        <mxCell id="fQJDZmtFNCd7QhIIV3Hv-2" value="서비스별 기능정리, 기능적 요구사향(C : Create, R : Read, U : Update, D : Delete, BL : Business Logic)" style="text;html=1;align=center;verticalAlign=middle;resizable=0;points=[];autosize=1;strokeColor=none;fillColor=none;" vertex="1" parent="1">
          <mxGeometry x="5" y="55" width="570" height="30" as="geometry" />
        </mxCell>
        <mxCell id="fQJDZmtFNCd7QhIIV3Hv-3" value="강의 서비스" style="rounded=0;whiteSpace=wrap;html=1;" vertex="1" parent="1">
          <mxGeometry x="20" y="120" width="230" height="50" as="geometry" />
        </mxCell>
        <mxCell id="fQJDZmtFNCd7QhIIV3Hv-4" value="회원 서비스" style="rounded=0;whiteSpace=wrap;html=1;" vertex="1" parent="1">
          <mxGeometry x="360" y="120" width="220" height="50" as="geometry" />
        </mxCell>
        <mxCell id="fQJDZmtFNCd7QhIIV3Hv-5" value="&lt;div style=&quot;text-align: justify;&quot;&gt;&lt;span style=&quot;background-color: initial;&quot;&gt;[관리 영역]&lt;/span&gt;&lt;/div&gt;&lt;div style=&quot;text-align: justify;&quot;&gt;&lt;span style=&quot;background-color: initial;&quot;&gt;신규 강의 생성하기 C BL&lt;/span&gt;&lt;/div&gt;&lt;div style=&quot;text-align: justify;&quot;&gt;&lt;span style=&quot;background-color: initial;&quot;&gt;강의 전체 조회하기 R BL&lt;/span&gt;&lt;/div&gt;&lt;div style=&quot;text-align: justify;&quot;&gt;&lt;span style=&quot;background-color: initial;&quot;&gt;강의 부분 조회하기 R BL&lt;/span&gt;&lt;/div&gt;&lt;div style=&quot;text-align: justify;&quot;&gt;&lt;span style=&quot;background-color: initial;&quot;&gt;기존 강의 수정하기 U BL&lt;/span&gt;&lt;/div&gt;&lt;div style=&quot;text-align: justify;&quot;&gt;&lt;span style=&quot;background-color: initial;&quot;&gt;기존 강의 삭제하기 D BL&lt;/span&gt;&lt;/div&gt;&lt;div style=&quot;text-align: justify;&quot;&gt;&lt;br&gt;&lt;/div&gt;&lt;div style=&quot;text-align: justify;&quot;&gt;&lt;span style=&quot;background-color: initial;&quot;&gt;[USE]&lt;/span&gt;&lt;/div&gt;&lt;div style=&quot;text-align: justify;&quot;&gt;&lt;span style=&quot;background-color: initial;&quot;&gt;강의 수강 신청하기 C BL&lt;/span&gt;&lt;/div&gt;&lt;div style=&quot;text-align: justify;&quot;&gt;&lt;span style=&quot;background-color: initial;&quot;&gt;신청 강의 조회하기 R BL&lt;/span&gt;&lt;/div&gt;&lt;div style=&quot;text-align: justify;&quot;&gt;&lt;span style=&quot;background-color: initial;&quot;&gt;신청 강의 수정하기 U BL&lt;/span&gt;&lt;/div&gt;&lt;div style=&quot;text-align: justify;&quot;&gt;&lt;span style=&quot;background-color: initial;&quot;&gt;신청 강의 삭제하기 D BL&lt;/span&gt;&lt;/div&gt;" style="rounded=0;whiteSpace=wrap;html=1;align=center;" vertex="1" parent="1">
          <mxGeometry x="20" y="200" width="230" height="300" as="geometry" />
        </mxCell>
        <mxCell id="fQJDZmtFNCd7QhIIV3Hv-6" value="&lt;div style=&quot;text-align: justify;&quot;&gt;&lt;span style=&quot;background-color: initial;&quot;&gt;[관리 영역]&lt;/span&gt;&lt;/div&gt;&lt;div style=&quot;text-align: justify;&quot;&gt;&lt;span style=&quot;background-color: initial;&quot;&gt;회원 생성하기 C BL&lt;/span&gt;&lt;/div&gt;&lt;div style=&quot;text-align: justify;&quot;&gt;&lt;span style=&quot;background-color: initial;&quot;&gt;회원 전체 조회하기 R BL&lt;/span&gt;&lt;br&gt;&lt;/div&gt;&lt;div style=&quot;text-align: justify;&quot;&gt;&lt;span style=&quot;background-color: initial;&quot;&gt;회원 부분 조회하기 R BL&amp;nbsp;&lt;/span&gt;&lt;/div&gt;&lt;div style=&quot;text-align: justify;&quot;&gt;&lt;span style=&quot;background-color: initial;&quot;&gt;회원 정보 수정하기 U BL&lt;/span&gt;&lt;/div&gt;&lt;div style=&quot;text-align: justify;&quot;&gt;&lt;span style=&quot;background-color: initial;&quot;&gt;회원 삭제하기 D BL&lt;/span&gt;&lt;/div&gt;&lt;div style=&quot;text-align: justify;&quot;&gt;&lt;br&gt;&lt;/div&gt;&lt;div style=&quot;text-align: justify;&quot;&gt;&lt;span style=&quot;background-color: initial;&quot;&gt;[USE]&lt;/span&gt;&lt;/div&gt;&lt;div style=&quot;text-align: justify;&quot;&gt;&lt;div style=&quot;border-color: var(--border-color);&quot;&gt;회원 가입하기 C BL&lt;/div&gt;&lt;/div&gt;&lt;div style=&quot;text-align: justify;&quot;&gt;로그인 하기 BL&lt;/div&gt;&lt;div style=&quot;text-align: justify;&quot;&gt;로그아웃 하기 BL&lt;/div&gt;&lt;div style=&quot;text-align: justify;&quot;&gt;나의 정보 확인하기 R BL&lt;/div&gt;&lt;div style=&quot;text-align: justify;&quot;&gt;나의 정보 수정하기 U BL&lt;/div&gt;&lt;div style=&quot;text-align: justify;&quot;&gt;회원 탈퇴하기 BL&lt;/div&gt;" style="rounded=0;whiteSpace=wrap;html=1;" vertex="1" parent="1">
          <mxGeometry x="360" y="200" width="220" height="300" as="geometry" />
        </mxCell>
        <mxCell id="10Gnmp0NjJQ9vZ5LPBWx-1" value="" style="rounded=0;whiteSpace=wrap;html=1;" vertex="1" parent="1">
          <mxGeometry x="10" y="555" width="810" height="60" as="geometry" />
        </mxCell>
        <mxCell id="10Gnmp0NjJQ9vZ5LPBWx-3" value="영역별(Domain) Permission 정리" style="text;html=1;align=center;verticalAlign=middle;resizable=0;points=[];autosize=1;strokeColor=none;fillColor=none;" vertex="1" parent="1">
          <mxGeometry x="20" y="570" width="200" height="30" as="geometry" />
        </mxCell>
        <mxCell id="10Gnmp0NjJQ9vZ5LPBWx-4" value="도메인" style="rounded=0;whiteSpace=wrap;html=1;" vertex="1" parent="1">
          <mxGeometry x="20" y="640" width="230" height="50" as="geometry" />
        </mxCell>
        <mxCell id="10Gnmp0NjJQ9vZ5LPBWx-5" value="&lt;div style=&quot;&quot;&gt;회원&lt;/div&gt;&lt;div style=&quot;&quot;&gt;(USER)&lt;/div&gt;" style="rounded=0;whiteSpace=wrap;html=1;align=center;" vertex="1" parent="1">
          <mxGeometry x="20" y="730" width="230" height="300" as="geometry" />
        </mxCell>
        <mxCell id="10Gnmp0NjJQ9vZ5LPBWx-6" value="강의 서비스" style="rounded=0;whiteSpace=wrap;html=1;" vertex="1" parent="1">
          <mxGeometry x="300" y="640" width="440" height="50" as="geometry" />
        </mxCell>
        <mxCell id="10Gnmp0NjJQ9vZ5LPBWx-7" value="&lt;div style=&quot;&quot;&gt;비회원&lt;/div&gt;&lt;div style=&quot;&quot;&gt;(ANONYMOUS)&lt;/div&gt;" style="rounded=0;whiteSpace=wrap;html=1;align=center;" vertex="1" parent="1">
          <mxGeometry x="20" y="1060" width="230" height="300" as="geometry" />
        </mxCell>
        <mxCell id="10Gnmp0NjJQ9vZ5LPBWx-8" value="&lt;div style=&quot;&quot;&gt;직원&lt;/div&gt;&lt;div style=&quot;&quot;&gt;(MANAGER)&lt;/div&gt;" style="rounded=0;whiteSpace=wrap;html=1;align=center;" vertex="1" parent="1">
          <mxGeometry x="20" y="1380" width="230" height="300" as="geometry" />
        </mxCell>
        <mxCell id="10Gnmp0NjJQ9vZ5LPBWx-9" value="&lt;div style=&quot;&quot;&gt;관리자&lt;/div&gt;&lt;div style=&quot;&quot;&gt;(ADMIN)&lt;/div&gt;" style="rounded=0;whiteSpace=wrap;html=1;align=center;" vertex="1" parent="1">
          <mxGeometry x="20" y="1720" width="230" height="300" as="geometry" />
        </mxCell>
        <mxCell id="10Gnmp0NjJQ9vZ5LPBWx-10" value="&lt;div style=&quot;text-align: justify;&quot;&gt;&lt;span style=&quot;background-color: initial;&quot;&gt;[관리 영역]&lt;/span&gt;&lt;/div&gt;&lt;div style=&quot;text-align: justify;&quot;&gt;&lt;span style=&quot;background-color: initial;&quot;&gt;신규 강의 생성하기 C BL - 없다&lt;/span&gt;&lt;/div&gt;&lt;div style=&quot;text-align: justify;&quot;&gt;&lt;span style=&quot;background-color: initial;&quot;&gt;강의 전체 조회하기 R BL - 있다&lt;/span&gt;&lt;/div&gt;&lt;div style=&quot;text-align: justify;&quot;&gt;&lt;span style=&quot;background-color: initial;&quot;&gt;강의 부분 조회하기 R BL - 있다&lt;/span&gt;&lt;/div&gt;&lt;div style=&quot;text-align: justify;&quot;&gt;&lt;span style=&quot;background-color: initial;&quot;&gt;기존 강의 수정하기 U BL - 없다&lt;/span&gt;&lt;/div&gt;&lt;div style=&quot;text-align: justify;&quot;&gt;&lt;span style=&quot;background-color: initial;&quot;&gt;기존 강의 삭제하기 D BL - 없다&lt;/span&gt;&lt;/div&gt;&lt;div style=&quot;text-align: justify;&quot;&gt;&lt;br&gt;&lt;/div&gt;&lt;div style=&quot;text-align: justify;&quot;&gt;&lt;span style=&quot;background-color: initial;&quot;&gt;[USE]&lt;/span&gt;&lt;/div&gt;&lt;div style=&quot;text-align: justify;&quot;&gt;&lt;span style=&quot;background-color: initial;&quot;&gt;강의 수강 신청하기 C BL - 있다&lt;/span&gt;&lt;/div&gt;&lt;div style=&quot;text-align: justify;&quot;&gt;&lt;span style=&quot;background-color: initial;&quot;&gt;신청 강의 조회하기 R BL - 있다&lt;/span&gt;&lt;/div&gt;&lt;div style=&quot;text-align: justify;&quot;&gt;&lt;span style=&quot;background-color: initial;&quot;&gt;신청 강의 수정하기 U BL - 있다&lt;/span&gt;&lt;/div&gt;&lt;div style=&quot;text-align: justify;&quot;&gt;&lt;span style=&quot;background-color: initial;&quot;&gt;신청 강의 삭제하기 D BL - 있다&lt;/span&gt;&lt;/div&gt;" style="rounded=0;whiteSpace=wrap;html=1;align=center;" vertex="1" parent="1">
          <mxGeometry x="299" y="730" width="441" height="300" as="geometry" />
        </mxCell>
        <mxCell id="10Gnmp0NjJQ9vZ5LPBWx-11" value="&lt;div style=&quot;text-align: justify;&quot;&gt;&lt;span style=&quot;background-color: initial;&quot;&gt;[관리 영역]&lt;/span&gt;&lt;/div&gt;&lt;div style=&quot;text-align: justify;&quot;&gt;&lt;span style=&quot;background-color: initial;&quot;&gt;신규 강의 생성하기 C BL - 없다&lt;/span&gt;&lt;/div&gt;&lt;div style=&quot;text-align: justify;&quot;&gt;&lt;span style=&quot;background-color: initial;&quot;&gt;강의 전체 조회하기 R BL - 있다&lt;/span&gt;&lt;/div&gt;&lt;div style=&quot;text-align: justify;&quot;&gt;&lt;span style=&quot;background-color: initial;&quot;&gt;강의 부분 조회하기 R BL - 있다&lt;/span&gt;&lt;/div&gt;&lt;div style=&quot;text-align: justify;&quot;&gt;&lt;span style=&quot;background-color: initial;&quot;&gt;기존 강의 수정하기 U BL - 없다&lt;/span&gt;&lt;/div&gt;&lt;div style=&quot;text-align: justify;&quot;&gt;&lt;span style=&quot;background-color: initial;&quot;&gt;기존 강의 삭제하기 D BL - 없다&lt;/span&gt;&lt;/div&gt;&lt;div style=&quot;text-align: justify;&quot;&gt;&lt;br&gt;&lt;/div&gt;&lt;div style=&quot;text-align: justify;&quot;&gt;&lt;span style=&quot;background-color: initial;&quot;&gt;[USE]&lt;/span&gt;&lt;/div&gt;&lt;div style=&quot;text-align: justify;&quot;&gt;&lt;span style=&quot;background-color: initial;&quot;&gt;강의 수강 신청하기 C BL - 없다&lt;/span&gt;&lt;/div&gt;&lt;div style=&quot;text-align: justify;&quot;&gt;&lt;span style=&quot;background-color: initial;&quot;&gt;신청 강의 조회하기 R BL - 없다&lt;/span&gt;&lt;/div&gt;&lt;div style=&quot;text-align: justify;&quot;&gt;&lt;span style=&quot;background-color: initial;&quot;&gt;신청 강의 수정하기 U BL - 없다&lt;/span&gt;&lt;/div&gt;&lt;div style=&quot;text-align: justify;&quot;&gt;&lt;span style=&quot;background-color: initial;&quot;&gt;신청 강의 삭제하기 D BL - 없다&lt;/span&gt;&lt;/div&gt;" style="rounded=0;whiteSpace=wrap;html=1;align=center;" vertex="1" parent="1">
          <mxGeometry x="300" y="1060" width="441" height="300" as="geometry" />
        </mxCell>
        <mxCell id="10Gnmp0NjJQ9vZ5LPBWx-12" value="&lt;div style=&quot;text-align: justify;&quot;&gt;&lt;span style=&quot;background-color: initial;&quot;&gt;[관리 영역]&lt;/span&gt;&lt;/div&gt;&lt;div style=&quot;text-align: justify;&quot;&gt;&lt;span style=&quot;background-color: initial;&quot;&gt;신규 강의 생성하기 C BL - 없다&lt;/span&gt;&lt;/div&gt;&lt;div style=&quot;text-align: justify;&quot;&gt;&lt;span style=&quot;background-color: initial;&quot;&gt;강의 전체 조회하기 R BL - 있다&lt;/span&gt;&lt;/div&gt;&lt;div style=&quot;text-align: justify;&quot;&gt;&lt;span style=&quot;background-color: initial;&quot;&gt;강의 부분 조회하기 R BL - 있다&lt;/span&gt;&lt;/div&gt;&lt;div style=&quot;text-align: justify;&quot;&gt;&lt;span style=&quot;background-color: initial;&quot;&gt;기존 강의 수정하기 U BL - 없다&lt;/span&gt;&lt;/div&gt;&lt;div style=&quot;text-align: justify;&quot;&gt;&lt;span style=&quot;background-color: initial;&quot;&gt;기존 강의 삭제하기 D BL - 없다&lt;/span&gt;&lt;/div&gt;&lt;div style=&quot;text-align: justify;&quot;&gt;&lt;br&gt;&lt;/div&gt;&lt;div style=&quot;text-align: justify;&quot;&gt;&lt;span style=&quot;background-color: initial;&quot;&gt;[USE]&lt;/span&gt;&lt;/div&gt;&lt;div style=&quot;text-align: justify;&quot;&gt;&lt;span style=&quot;background-color: initial;&quot;&gt;강의 수강 신청하기 C BL - 없다&lt;/span&gt;&lt;/div&gt;&lt;div style=&quot;text-align: justify;&quot;&gt;&lt;span style=&quot;background-color: initial;&quot;&gt;신청 강의 조회하기 R BL - 없다&lt;/span&gt;&lt;/div&gt;&lt;div style=&quot;text-align: justify;&quot;&gt;&lt;span style=&quot;background-color: initial;&quot;&gt;신청 강의 수정하기 U BL - 없다&lt;/span&gt;&lt;/div&gt;&lt;div style=&quot;text-align: justify;&quot;&gt;&lt;span style=&quot;background-color: initial;&quot;&gt;신청 강의 삭제하기 D BL - 없다&lt;/span&gt;&lt;/div&gt;" style="rounded=0;whiteSpace=wrap;html=1;align=center;" vertex="1" parent="1">
          <mxGeometry x="300" y="1380" width="441" height="300" as="geometry" />
        </mxCell>
        <mxCell id="10Gnmp0NjJQ9vZ5LPBWx-13" value="&lt;div style=&quot;text-align: justify;&quot;&gt;&lt;span style=&quot;background-color: initial;&quot;&gt;[관리 영역]&lt;/span&gt;&lt;/div&gt;&lt;div style=&quot;text-align: justify;&quot;&gt;&lt;span style=&quot;background-color: initial;&quot;&gt;신규 강의 생성하기 C BL - 있다&lt;/span&gt;&lt;/div&gt;&lt;div style=&quot;text-align: justify;&quot;&gt;&lt;span style=&quot;background-color: initial;&quot;&gt;강의 전체 조회하기 R BL - 있다&lt;/span&gt;&lt;/div&gt;&lt;div style=&quot;text-align: justify;&quot;&gt;&lt;span style=&quot;background-color: initial;&quot;&gt;강의 부분 조회하기 R BL - 있다&lt;/span&gt;&lt;/div&gt;&lt;div style=&quot;text-align: justify;&quot;&gt;&lt;span style=&quot;background-color: initial;&quot;&gt;기존 강의 수정하기 U BL - 있다&lt;/span&gt;&lt;/div&gt;&lt;div style=&quot;text-align: justify;&quot;&gt;&lt;span style=&quot;background-color: initial;&quot;&gt;기존 강의 삭제하기 D BL - 있다&lt;/span&gt;&lt;/div&gt;&lt;div style=&quot;text-align: justify;&quot;&gt;&lt;br&gt;&lt;/div&gt;&lt;div style=&quot;text-align: justify;&quot;&gt;&lt;span style=&quot;background-color: initial;&quot;&gt;[USE]&lt;/span&gt;&lt;/div&gt;&lt;div style=&quot;text-align: justify;&quot;&gt;&lt;span style=&quot;background-color: initial;&quot;&gt;강의 수강 신청하기 C BL - 있다&lt;/span&gt;&lt;/div&gt;&lt;div style=&quot;text-align: justify;&quot;&gt;&lt;span style=&quot;background-color: initial;&quot;&gt;신청 강의 조회하기 R BL - 있다&lt;/span&gt;&lt;/div&gt;&lt;div style=&quot;text-align: justify;&quot;&gt;&lt;span style=&quot;background-color: initial;&quot;&gt;신청 강의 수정하기 U BL - 있다&lt;/span&gt;&lt;/div&gt;&lt;div style=&quot;text-align: justify;&quot;&gt;&lt;span style=&quot;background-color: initial;&quot;&gt;신청 강의 삭제하기 D BL - 있다&lt;/span&gt;&lt;/div&gt;" style="rounded=0;whiteSpace=wrap;html=1;align=center;" vertex="1" parent="1">
          <mxGeometry x="300" y="1720" width="441" height="300" as="geometry" />
        </mxCell>
        <mxCell id="10Gnmp0NjJQ9vZ5LPBWx-14" value="회워 서비스" style="rounded=0;whiteSpace=wrap;html=1;" vertex="1" parent="1">
          <mxGeometry x="770" y="640" width="440" height="50" as="geometry" />
        </mxCell>
        <mxCell id="10Gnmp0NjJQ9vZ5LPBWx-16" value="&lt;div style=&quot;text-align: justify;&quot;&gt;&lt;span style=&quot;background-color: initial;&quot;&gt;[관리 영역]&lt;/span&gt;&lt;/div&gt;&lt;div style=&quot;text-align: justify;&quot;&gt;&lt;div style=&quot;border-color: var(--border-color);&quot;&gt;회원 생성 하기 C BL - 없다&lt;/div&gt;&lt;/div&gt;&lt;div style=&quot;text-align: justify;&quot;&gt;회원 전체 조회하기 R BL - 없다&lt;br&gt;&lt;/div&gt;&lt;div style=&quot;text-align: justify;&quot;&gt;&lt;span style=&quot;background-color: initial;&quot;&gt;회원 부분 조회하기 R BL - 없다&lt;/span&gt;&lt;/div&gt;&lt;div style=&quot;text-align: justify;&quot;&gt;&lt;span style=&quot;background-color: initial;&quot;&gt;회원 정보 수정하기 U BL - 없다&lt;/span&gt;&lt;/div&gt;&lt;div style=&quot;text-align: justify;&quot;&gt;&lt;span style=&quot;background-color: initial;&quot;&gt;회원 삭제하기 D BL - 없다&lt;/span&gt;&lt;/div&gt;&lt;div style=&quot;text-align: justify;&quot;&gt;&lt;br&gt;&lt;/div&gt;&lt;div style=&quot;text-align: justify;&quot;&gt;&lt;span style=&quot;background-color: initial;&quot;&gt;[USE]&lt;/span&gt;&lt;/div&gt;&lt;div style=&quot;border-color: var(--border-color); text-align: justify;&quot;&gt;회원 가입하기 C BL - 없다&lt;/div&gt;&lt;div style=&quot;text-align: justify;&quot;&gt;&lt;span style=&quot;background-color: initial;&quot;&gt;로그인 하기 BL - 있다&lt;/span&gt;&lt;/div&gt;&lt;div style=&quot;text-align: justify;&quot;&gt;로그아웃 하기 BL - 있다&lt;/div&gt;&lt;div style=&quot;text-align: justify;&quot;&gt;나의 정보 확인하기 BL - 있다&lt;/div&gt;&lt;div style=&quot;text-align: justify;&quot;&gt;나의 정보 수정하기 BL - 있다&lt;/div&gt;&lt;div style=&quot;text-align: justify;&quot;&gt;회원 탈퇴하기 BL - 있다&lt;/div&gt;" style="rounded=0;whiteSpace=wrap;html=1;" vertex="1" parent="1">
          <mxGeometry x="770" y="730" width="440" height="300" as="geometry" />
        </mxCell>
        <mxCell id="10Gnmp0NjJQ9vZ5LPBWx-17" value="&lt;div style=&quot;text-align: justify;&quot;&gt;&lt;span style=&quot;background-color: initial;&quot;&gt;[관리 영역]&lt;/span&gt;&lt;/div&gt;&lt;div style=&quot;text-align: justify;&quot;&gt;회원 생성 하기 C BL - 없다&lt;/div&gt;&lt;div style=&quot;text-align: justify;&quot;&gt;&lt;span style=&quot;background-color: initial;&quot;&gt;회원 전체 조회하기 R BL - 없다&lt;/span&gt;&lt;br&gt;&lt;/div&gt;&lt;div style=&quot;text-align: justify;&quot;&gt;&lt;span style=&quot;background-color: initial;&quot;&gt;회원 부분 조회하기 R BL - 없다&lt;/span&gt;&lt;/div&gt;&lt;div style=&quot;text-align: justify;&quot;&gt;&lt;span style=&quot;background-color: initial;&quot;&gt;회원 정보 수정하기 U BL - 없다&lt;/span&gt;&lt;/div&gt;&lt;div style=&quot;text-align: justify;&quot;&gt;&lt;span style=&quot;background-color: initial;&quot;&gt;회원 삭제하기 D BL - 없다&lt;/span&gt;&lt;/div&gt;&lt;div style=&quot;text-align: justify;&quot;&gt;&lt;br&gt;&lt;/div&gt;&lt;div style=&quot;text-align: justify;&quot;&gt;&lt;span style=&quot;background-color: initial;&quot;&gt;[USE]&lt;/span&gt;&lt;/div&gt;&lt;div style=&quot;text-align: justify;&quot;&gt;&lt;div style=&quot;border-color: var(--border-color);&quot;&gt;회원 가입하기 C BL - 있다&lt;/div&gt;&lt;/div&gt;&lt;div style=&quot;text-align: justify;&quot;&gt;로그인 하기 BL - 있다&lt;/div&gt;&lt;div style=&quot;text-align: justify;&quot;&gt;로그아웃 하기 BL - 있다&lt;/div&gt;&lt;div style=&quot;text-align: justify;&quot;&gt;나의 정보 확인하기 BL - 있다&lt;/div&gt;&lt;div style=&quot;text-align: justify;&quot;&gt;나의 정보 수정하기 BL - 있다&lt;/div&gt;&lt;div style=&quot;text-align: justify;&quot;&gt;회원 탈퇴하기 BL - 있다&lt;/div&gt;" style="rounded=0;whiteSpace=wrap;html=1;" vertex="1" parent="1">
          <mxGeometry x="770" y="1060" width="440" height="300" as="geometry" />
        </mxCell>
        <mxCell id="10Gnmp0NjJQ9vZ5LPBWx-18" value="" style="rounded=0;whiteSpace=wrap;html=1;" vertex="1" parent="1">
          <mxGeometry x="5" y="2080" width="810" height="60" as="geometry" />
        </mxCell>
        <mxCell id="10Gnmp0NjJQ9vZ5LPBWx-19" value="저장 단위별 정리 (Entitiy) - Create에 필요한 속성들 정리" style="text;html=1;align=center;verticalAlign=middle;resizable=0;points=[];autosize=1;strokeColor=none;fillColor=none;" vertex="1" parent="1">
          <mxGeometry x="20" y="2095" width="320" height="30" as="geometry" />
        </mxCell>
        <mxCell id="10Gnmp0NjJQ9vZ5LPBWx-20" value="강의 서비스" style="rounded=0;whiteSpace=wrap;html=1;" vertex="1" parent="1">
          <mxGeometry x="20" y="2180" width="230" height="50" as="geometry" />
        </mxCell>
        <mxCell id="10Gnmp0NjJQ9vZ5LPBWx-21" value="회원 서비스" style="rounded=0;whiteSpace=wrap;html=1;" vertex="1" parent="1">
          <mxGeometry x="20" y="2620" width="220" height="50" as="geometry" />
        </mxCell>
        <mxCell id="10Gnmp0NjJQ9vZ5LPBWx-22" value="&lt;div style=&quot;text-align: justify;&quot;&gt;&lt;span style=&quot;background-color: initial;&quot;&gt;[관리 영역]&lt;/span&gt;&lt;/div&gt;&lt;div style=&quot;text-align: justify;&quot;&gt;&lt;span style=&quot;background-color: initial;&quot;&gt;신규 강의 생성하기 &lt;font color=&quot;#ff0000&quot;&gt;C &lt;/font&gt;BL&lt;/span&gt;&lt;/div&gt;&lt;div style=&quot;text-align: justify;&quot;&gt;&lt;span style=&quot;background-color: initial;&quot;&gt;강의 전체 조회하기 R BL&lt;/span&gt;&lt;/div&gt;&lt;div style=&quot;text-align: justify;&quot;&gt;&lt;span style=&quot;background-color: initial;&quot;&gt;강의 부분 조회하기 R BL&lt;/span&gt;&lt;/div&gt;&lt;div style=&quot;text-align: justify;&quot;&gt;&lt;span style=&quot;background-color: initial;&quot;&gt;기존 강의 수정하기 U BL&lt;/span&gt;&lt;/div&gt;&lt;div style=&quot;text-align: justify;&quot;&gt;&lt;span style=&quot;background-color: initial;&quot;&gt;기존 강의 삭제하기 D BL&lt;/span&gt;&lt;/div&gt;&lt;div style=&quot;text-align: justify;&quot;&gt;&lt;br&gt;&lt;/div&gt;&lt;div style=&quot;text-align: justify;&quot;&gt;&lt;span style=&quot;background-color: initial;&quot;&gt;[USE]&lt;/span&gt;&lt;/div&gt;&lt;div style=&quot;text-align: justify;&quot;&gt;&lt;span style=&quot;background-color: initial;&quot;&gt;강의 수강 신청하기 C BL&lt;/span&gt;&lt;/div&gt;&lt;div style=&quot;text-align: justify;&quot;&gt;&lt;span style=&quot;background-color: initial;&quot;&gt;신청 강의 조회하기 R BL&lt;/span&gt;&lt;/div&gt;&lt;div style=&quot;text-align: justify;&quot;&gt;&lt;span style=&quot;background-color: initial;&quot;&gt;신청 강의 수정하기 U BL&lt;/span&gt;&lt;/div&gt;&lt;div style=&quot;text-align: justify;&quot;&gt;&lt;span style=&quot;background-color: initial;&quot;&gt;신청 강의 삭제하기 D BL&lt;/span&gt;&lt;/div&gt;" style="rounded=0;whiteSpace=wrap;html=1;align=center;" vertex="1" parent="1">
          <mxGeometry x="20" y="2260" width="230" height="300" as="geometry" />
        </mxCell>
        <mxCell id="10Gnmp0NjJQ9vZ5LPBWx-23" value="&lt;div style=&quot;text-align: justify;&quot;&gt;&lt;span style=&quot;background-color: initial;&quot;&gt;[관리 영역]&lt;/span&gt;&lt;/div&gt;&lt;div style=&quot;text-align: justify;&quot;&gt;&lt;span style=&quot;background-color: initial;&quot;&gt;회원 생성하기 C BL&lt;/span&gt;&lt;/div&gt;&lt;div style=&quot;text-align: justify;&quot;&gt;&lt;span style=&quot;background-color: initial;&quot;&gt;회원 전체 조회하기 R BL&lt;/span&gt;&lt;br&gt;&lt;/div&gt;&lt;div style=&quot;text-align: justify;&quot;&gt;&lt;span style=&quot;background-color: initial;&quot;&gt;회원 부분 조회하기 R BL&amp;nbsp;&lt;/span&gt;&lt;/div&gt;&lt;div style=&quot;text-align: justify;&quot;&gt;&lt;span style=&quot;background-color: initial;&quot;&gt;회원 정보 수정하기 U BL&lt;/span&gt;&lt;/div&gt;&lt;div style=&quot;text-align: justify;&quot;&gt;&lt;span style=&quot;background-color: initial;&quot;&gt;회원 삭제하기 D BL&lt;/span&gt;&lt;/div&gt;&lt;div style=&quot;text-align: justify;&quot;&gt;&lt;br&gt;&lt;/div&gt;&lt;div style=&quot;text-align: justify;&quot;&gt;&lt;span style=&quot;background-color: initial;&quot;&gt;[USE]&lt;/span&gt;&lt;/div&gt;&lt;div style=&quot;text-align: justify;&quot;&gt;&lt;div style=&quot;border-color: var(--border-color);&quot;&gt;회원 가입하기 C BL&lt;/div&gt;&lt;/div&gt;&lt;div style=&quot;text-align: justify;&quot;&gt;로그인 하기 BL&lt;/div&gt;&lt;div style=&quot;text-align: justify;&quot;&gt;로그아웃 하기 BL&lt;/div&gt;&lt;div style=&quot;text-align: justify;&quot;&gt;나의 정보 확인하기 R BL&lt;/div&gt;&lt;div style=&quot;text-align: justify;&quot;&gt;나의 정보 수정하기 U BL&lt;/div&gt;&lt;div style=&quot;text-align: justify;&quot;&gt;회원 탈퇴하기 BL&lt;/div&gt;" style="rounded=0;whiteSpace=wrap;html=1;" vertex="1" parent="1">
          <mxGeometry x="20" y="2700" width="220" height="300" as="geometry" />
        </mxCell>
        <mxCell id="10Gnmp0NjJQ9vZ5LPBWx-24" value="강의 ENTITY" style="rounded=0;whiteSpace=wrap;html=1;" vertex="1" parent="1">
          <mxGeometry x="300" y="2180" width="230" height="50" as="geometry" />
        </mxCell>
        <mxCell id="10Gnmp0NjJQ9vZ5LPBWx-25" value="[Attribute]&lt;br&gt;강의 구별 번호(PK)&lt;br&gt;강의명&lt;br&gt;강사명&lt;br&gt;강의장명&lt;br&gt;강의 시간&lt;br&gt;상세 정보" style="rounded=0;whiteSpace=wrap;html=1;" vertex="1" parent="1">
          <mxGeometry x="300" y="2260" width="220" height="170" as="geometry" />
        </mxCell>
        <mxCell id="10Gnmp0NjJQ9vZ5LPBWx-26" value="" style="endArrow=classic;html=1;rounded=0;entryX=0;entryY=0.5;entryDx=0;entryDy=0;" edge="1" parent="1" target="10Gnmp0NjJQ9vZ5LPBWx-25">
          <mxGeometry width="50" height="50" relative="1" as="geometry">
            <mxPoint x="210" y="2345" as="sourcePoint" />
            <mxPoint x="260" y="2300" as="targetPoint" />
          </mxGeometry>
        </mxCell>
        <mxCell id="10Gnmp0NjJQ9vZ5LPBWx-27" value="강의 Table" style="shape=table;startSize=30;container=1;collapsible=1;childLayout=tableLayout;fixedRows=1;rowLines=0;fontStyle=1;align=center;resizeLast=1;html=1;" vertex="1" parent="1">
          <mxGeometry x="580" y="2260" width="180" height="210" as="geometry" />
        </mxCell>
        <mxCell id="10Gnmp0NjJQ9vZ5LPBWx-28" value="" style="shape=tableRow;horizontal=0;startSize=0;swimlaneHead=0;swimlaneBody=0;fillColor=none;collapsible=0;dropTarget=0;points=[[0,0.5],[1,0.5]];portConstraint=eastwest;top=0;left=0;right=0;bottom=1;" vertex="1" parent="10Gnmp0NjJQ9vZ5LPBWx-27">
          <mxGeometry y="30" width="180" height="30" as="geometry" />
        </mxCell>
        <mxCell id="10Gnmp0NjJQ9vZ5LPBWx-29" value="PK" style="shape=partialRectangle;connectable=0;fillColor=none;top=0;left=0;bottom=0;right=0;fontStyle=1;overflow=hidden;whiteSpace=wrap;html=1;" vertex="1" parent="10Gnmp0NjJQ9vZ5LPBWx-28">
          <mxGeometry width="30" height="30" as="geometry">
            <mxRectangle width="30" height="30" as="alternateBounds" />
          </mxGeometry>
        </mxCell>
        <mxCell id="10Gnmp0NjJQ9vZ5LPBWx-30" value="강의구별번호" style="shape=partialRectangle;connectable=0;fillColor=none;top=0;left=0;bottom=0;right=0;align=left;spacingLeft=6;fontStyle=5;overflow=hidden;whiteSpace=wrap;html=1;" vertex="1" parent="10Gnmp0NjJQ9vZ5LPBWx-28">
          <mxGeometry x="30" width="150" height="30" as="geometry">
            <mxRectangle width="150" height="30" as="alternateBounds" />
          </mxGeometry>
        </mxCell>
        <mxCell id="10Gnmp0NjJQ9vZ5LPBWx-31" value="" style="shape=tableRow;horizontal=0;startSize=0;swimlaneHead=0;swimlaneBody=0;fillColor=none;collapsible=0;dropTarget=0;points=[[0,0.5],[1,0.5]];portConstraint=eastwest;top=0;left=0;right=0;bottom=0;" vertex="1" parent="10Gnmp0NjJQ9vZ5LPBWx-27">
          <mxGeometry y="60" width="180" height="30" as="geometry" />
        </mxCell>
        <mxCell id="10Gnmp0NjJQ9vZ5LPBWx-32" value="" style="shape=partialRectangle;connectable=0;fillColor=none;top=0;left=0;bottom=0;right=0;editable=1;overflow=hidden;whiteSpace=wrap;html=1;" vertex="1" parent="10Gnmp0NjJQ9vZ5LPBWx-31">
          <mxGeometry width="30" height="30" as="geometry">
            <mxRectangle width="30" height="30" as="alternateBounds" />
          </mxGeometry>
        </mxCell>
        <mxCell id="10Gnmp0NjJQ9vZ5LPBWx-33" value="강의명" style="shape=partialRectangle;connectable=0;fillColor=none;top=0;left=0;bottom=0;right=0;align=left;spacingLeft=6;overflow=hidden;whiteSpace=wrap;html=1;" vertex="1" parent="10Gnmp0NjJQ9vZ5LPBWx-31">
          <mxGeometry x="30" width="150" height="30" as="geometry">
            <mxRectangle width="150" height="30" as="alternateBounds" />
          </mxGeometry>
        </mxCell>
        <mxCell id="10Gnmp0NjJQ9vZ5LPBWx-34" value="" style="shape=tableRow;horizontal=0;startSize=0;swimlaneHead=0;swimlaneBody=0;fillColor=none;collapsible=0;dropTarget=0;points=[[0,0.5],[1,0.5]];portConstraint=eastwest;top=0;left=0;right=0;bottom=0;" vertex="1" parent="10Gnmp0NjJQ9vZ5LPBWx-27">
          <mxGeometry y="90" width="180" height="30" as="geometry" />
        </mxCell>
        <mxCell id="10Gnmp0NjJQ9vZ5LPBWx-35" value="" style="shape=partialRectangle;connectable=0;fillColor=none;top=0;left=0;bottom=0;right=0;editable=1;overflow=hidden;whiteSpace=wrap;html=1;" vertex="1" parent="10Gnmp0NjJQ9vZ5LPBWx-34">
          <mxGeometry width="30" height="30" as="geometry">
            <mxRectangle width="30" height="30" as="alternateBounds" />
          </mxGeometry>
        </mxCell>
        <mxCell id="10Gnmp0NjJQ9vZ5LPBWx-36" value="강사명" style="shape=partialRectangle;connectable=0;fillColor=none;top=0;left=0;bottom=0;right=0;align=left;spacingLeft=6;overflow=hidden;whiteSpace=wrap;html=1;" vertex="1" parent="10Gnmp0NjJQ9vZ5LPBWx-34">
          <mxGeometry x="30" width="150" height="30" as="geometry">
            <mxRectangle width="150" height="30" as="alternateBounds" />
          </mxGeometry>
        </mxCell>
        <mxCell id="10Gnmp0NjJQ9vZ5LPBWx-37" value="" style="shape=tableRow;horizontal=0;startSize=0;swimlaneHead=0;swimlaneBody=0;fillColor=none;collapsible=0;dropTarget=0;points=[[0,0.5],[1,0.5]];portConstraint=eastwest;top=0;left=0;right=0;bottom=0;" vertex="1" parent="10Gnmp0NjJQ9vZ5LPBWx-27">
          <mxGeometry y="120" width="180" height="30" as="geometry" />
        </mxCell>
        <mxCell id="10Gnmp0NjJQ9vZ5LPBWx-38" value="" style="shape=partialRectangle;connectable=0;fillColor=none;top=0;left=0;bottom=0;right=0;editable=1;overflow=hidden;whiteSpace=wrap;html=1;" vertex="1" parent="10Gnmp0NjJQ9vZ5LPBWx-37">
          <mxGeometry width="30" height="30" as="geometry">
            <mxRectangle width="30" height="30" as="alternateBounds" />
          </mxGeometry>
        </mxCell>
        <mxCell id="10Gnmp0NjJQ9vZ5LPBWx-39" value="강의장명" style="shape=partialRectangle;connectable=0;fillColor=none;top=0;left=0;bottom=0;right=0;align=left;spacingLeft=6;overflow=hidden;whiteSpace=wrap;html=1;" vertex="1" parent="10Gnmp0NjJQ9vZ5LPBWx-37">
          <mxGeometry x="30" width="150" height="30" as="geometry">
            <mxRectangle width="150" height="30" as="alternateBounds" />
          </mxGeometry>
        </mxCell>
        <mxCell id="10Gnmp0NjJQ9vZ5LPBWx-40" value="" style="shape=tableRow;horizontal=0;startSize=0;swimlaneHead=0;swimlaneBody=0;fillColor=none;collapsible=0;dropTarget=0;points=[[0,0.5],[1,0.5]];portConstraint=eastwest;top=0;left=0;right=0;bottom=0;" vertex="1" parent="10Gnmp0NjJQ9vZ5LPBWx-27">
          <mxGeometry y="150" width="180" height="30" as="geometry" />
        </mxCell>
        <mxCell id="10Gnmp0NjJQ9vZ5LPBWx-41" value="" style="shape=partialRectangle;connectable=0;fillColor=none;top=0;left=0;bottom=0;right=0;editable=1;overflow=hidden;whiteSpace=wrap;html=1;" vertex="1" parent="10Gnmp0NjJQ9vZ5LPBWx-40">
          <mxGeometry width="30" height="30" as="geometry">
            <mxRectangle width="30" height="30" as="alternateBounds" />
          </mxGeometry>
        </mxCell>
        <mxCell id="10Gnmp0NjJQ9vZ5LPBWx-42" value="강의 시간" style="shape=partialRectangle;connectable=0;fillColor=none;top=0;left=0;bottom=0;right=0;align=left;spacingLeft=6;overflow=hidden;whiteSpace=wrap;html=1;" vertex="1" parent="10Gnmp0NjJQ9vZ5LPBWx-40">
          <mxGeometry x="30" width="150" height="30" as="geometry">
            <mxRectangle width="150" height="30" as="alternateBounds" />
          </mxGeometry>
        </mxCell>
        <mxCell id="10Gnmp0NjJQ9vZ5LPBWx-43" value="" style="shape=tableRow;horizontal=0;startSize=0;swimlaneHead=0;swimlaneBody=0;fillColor=none;collapsible=0;dropTarget=0;points=[[0,0.5],[1,0.5]];portConstraint=eastwest;top=0;left=0;right=0;bottom=0;" vertex="1" parent="10Gnmp0NjJQ9vZ5LPBWx-27">
          <mxGeometry y="180" width="180" height="30" as="geometry" />
        </mxCell>
        <mxCell id="10Gnmp0NjJQ9vZ5LPBWx-44" value="" style="shape=partialRectangle;connectable=0;fillColor=none;top=0;left=0;bottom=0;right=0;editable=1;overflow=hidden;whiteSpace=wrap;html=1;" vertex="1" parent="10Gnmp0NjJQ9vZ5LPBWx-43">
          <mxGeometry width="30" height="30" as="geometry">
            <mxRectangle width="30" height="30" as="alternateBounds" />
          </mxGeometry>
        </mxCell>
        <mxCell id="10Gnmp0NjJQ9vZ5LPBWx-45" value="상세 정보" style="shape=partialRectangle;connectable=0;fillColor=none;top=0;left=0;bottom=0;right=0;align=left;spacingLeft=6;overflow=hidden;whiteSpace=wrap;html=1;" vertex="1" parent="10Gnmp0NjJQ9vZ5LPBWx-43">
          <mxGeometry x="30" width="150" height="30" as="geometry">
            <mxRectangle width="150" height="30" as="alternateBounds" />
          </mxGeometry>
        </mxCell>
        <mxCell id="10Gnmp0NjJQ9vZ5LPBWx-46" value="회원 ENTITY" style="rounded=0;whiteSpace=wrap;html=1;" vertex="1" parent="1">
          <mxGeometry x="300" y="2620" width="230" height="50" as="geometry" />
        </mxCell>
        <mxCell id="10Gnmp0NjJQ9vZ5LPBWx-47" value="[Attribute]&lt;br&gt;회원 ID(PK)&lt;br&gt;회원 PW&lt;br&gt;회원 이름&lt;br&gt;회원 연락처&lt;br&gt;회원 주소" style="rounded=0;whiteSpace=wrap;html=1;" vertex="1" parent="1">
          <mxGeometry x="300" y="2700" width="220" height="170" as="geometry" />
        </mxCell>
        <mxCell id="10Gnmp0NjJQ9vZ5LPBWx-48" value="회원 Table" style="shape=table;startSize=30;container=1;collapsible=1;childLayout=tableLayout;fixedRows=1;rowLines=0;fontStyle=1;align=center;resizeLast=1;html=1;" vertex="1" parent="1">
          <mxGeometry x="590" y="2620" width="180" height="180" as="geometry" />
        </mxCell>
        <mxCell id="10Gnmp0NjJQ9vZ5LPBWx-49" value="" style="shape=tableRow;horizontal=0;startSize=0;swimlaneHead=0;swimlaneBody=0;fillColor=none;collapsible=0;dropTarget=0;points=[[0,0.5],[1,0.5]];portConstraint=eastwest;top=0;left=0;right=0;bottom=1;" vertex="1" parent="10Gnmp0NjJQ9vZ5LPBWx-48">
          <mxGeometry y="30" width="180" height="30" as="geometry" />
        </mxCell>
        <mxCell id="10Gnmp0NjJQ9vZ5LPBWx-50" value="PK" style="shape=partialRectangle;connectable=0;fillColor=none;top=0;left=0;bottom=0;right=0;fontStyle=1;overflow=hidden;whiteSpace=wrap;html=1;" vertex="1" parent="10Gnmp0NjJQ9vZ5LPBWx-49">
          <mxGeometry width="30" height="30" as="geometry">
            <mxRectangle width="30" height="30" as="alternateBounds" />
          </mxGeometry>
        </mxCell>
        <mxCell id="10Gnmp0NjJQ9vZ5LPBWx-51" value="회원ID" style="shape=partialRectangle;connectable=0;fillColor=none;top=0;left=0;bottom=0;right=0;align=left;spacingLeft=6;fontStyle=5;overflow=hidden;whiteSpace=wrap;html=1;" vertex="1" parent="10Gnmp0NjJQ9vZ5LPBWx-49">
          <mxGeometry x="30" width="150" height="30" as="geometry">
            <mxRectangle width="150" height="30" as="alternateBounds" />
          </mxGeometry>
        </mxCell>
        <mxCell id="10Gnmp0NjJQ9vZ5LPBWx-52" value="" style="shape=tableRow;horizontal=0;startSize=0;swimlaneHead=0;swimlaneBody=0;fillColor=none;collapsible=0;dropTarget=0;points=[[0,0.5],[1,0.5]];portConstraint=eastwest;top=0;left=0;right=0;bottom=0;" vertex="1" parent="10Gnmp0NjJQ9vZ5LPBWx-48">
          <mxGeometry y="60" width="180" height="30" as="geometry" />
        </mxCell>
        <mxCell id="10Gnmp0NjJQ9vZ5LPBWx-53" value="" style="shape=partialRectangle;connectable=0;fillColor=none;top=0;left=0;bottom=0;right=0;editable=1;overflow=hidden;whiteSpace=wrap;html=1;" vertex="1" parent="10Gnmp0NjJQ9vZ5LPBWx-52">
          <mxGeometry width="30" height="30" as="geometry">
            <mxRectangle width="30" height="30" as="alternateBounds" />
          </mxGeometry>
        </mxCell>
        <mxCell id="10Gnmp0NjJQ9vZ5LPBWx-54" value="회원PW" style="shape=partialRectangle;connectable=0;fillColor=none;top=0;left=0;bottom=0;right=0;align=left;spacingLeft=6;overflow=hidden;whiteSpace=wrap;html=1;" vertex="1" parent="10Gnmp0NjJQ9vZ5LPBWx-52">
          <mxGeometry x="30" width="150" height="30" as="geometry">
            <mxRectangle width="150" height="30" as="alternateBounds" />
          </mxGeometry>
        </mxCell>
        <mxCell id="10Gnmp0NjJQ9vZ5LPBWx-55" value="" style="shape=tableRow;horizontal=0;startSize=0;swimlaneHead=0;swimlaneBody=0;fillColor=none;collapsible=0;dropTarget=0;points=[[0,0.5],[1,0.5]];portConstraint=eastwest;top=0;left=0;right=0;bottom=0;" vertex="1" parent="10Gnmp0NjJQ9vZ5LPBWx-48">
          <mxGeometry y="90" width="180" height="30" as="geometry" />
        </mxCell>
        <mxCell id="10Gnmp0NjJQ9vZ5LPBWx-56" value="" style="shape=partialRectangle;connectable=0;fillColor=none;top=0;left=0;bottom=0;right=0;editable=1;overflow=hidden;whiteSpace=wrap;html=1;" vertex="1" parent="10Gnmp0NjJQ9vZ5LPBWx-55">
          <mxGeometry width="30" height="30" as="geometry">
            <mxRectangle width="30" height="30" as="alternateBounds" />
          </mxGeometry>
        </mxCell>
        <mxCell id="10Gnmp0NjJQ9vZ5LPBWx-57" value="회원 이름" style="shape=partialRectangle;connectable=0;fillColor=none;top=0;left=0;bottom=0;right=0;align=left;spacingLeft=6;overflow=hidden;whiteSpace=wrap;html=1;" vertex="1" parent="10Gnmp0NjJQ9vZ5LPBWx-55">
          <mxGeometry x="30" width="150" height="30" as="geometry">
            <mxRectangle width="150" height="30" as="alternateBounds" />
          </mxGeometry>
        </mxCell>
        <mxCell id="10Gnmp0NjJQ9vZ5LPBWx-58" value="" style="shape=tableRow;horizontal=0;startSize=0;swimlaneHead=0;swimlaneBody=0;fillColor=none;collapsible=0;dropTarget=0;points=[[0,0.5],[1,0.5]];portConstraint=eastwest;top=0;left=0;right=0;bottom=0;" vertex="1" parent="10Gnmp0NjJQ9vZ5LPBWx-48">
          <mxGeometry y="120" width="180" height="30" as="geometry" />
        </mxCell>
        <mxCell id="10Gnmp0NjJQ9vZ5LPBWx-59" value="" style="shape=partialRectangle;connectable=0;fillColor=none;top=0;left=0;bottom=0;right=0;editable=1;overflow=hidden;whiteSpace=wrap;html=1;" vertex="1" parent="10Gnmp0NjJQ9vZ5LPBWx-58">
          <mxGeometry width="30" height="30" as="geometry">
            <mxRectangle width="30" height="30" as="alternateBounds" />
          </mxGeometry>
        </mxCell>
        <mxCell id="10Gnmp0NjJQ9vZ5LPBWx-60" value="회원 연락처" style="shape=partialRectangle;connectable=0;fillColor=none;top=0;left=0;bottom=0;right=0;align=left;spacingLeft=6;overflow=hidden;whiteSpace=wrap;html=1;" vertex="1" parent="10Gnmp0NjJQ9vZ5LPBWx-58">
          <mxGeometry x="30" width="150" height="30" as="geometry">
            <mxRectangle width="150" height="30" as="alternateBounds" />
          </mxGeometry>
        </mxCell>
        <mxCell id="10Gnmp0NjJQ9vZ5LPBWx-82" value="" style="shape=tableRow;horizontal=0;startSize=0;swimlaneHead=0;swimlaneBody=0;fillColor=none;collapsible=0;dropTarget=0;points=[[0,0.5],[1,0.5]];portConstraint=eastwest;top=0;left=0;right=0;bottom=0;" vertex="1" parent="10Gnmp0NjJQ9vZ5LPBWx-48">
          <mxGeometry y="150" width="180" height="30" as="geometry" />
        </mxCell>
        <mxCell id="10Gnmp0NjJQ9vZ5LPBWx-83" value="" style="shape=partialRectangle;connectable=0;fillColor=none;top=0;left=0;bottom=0;right=0;editable=1;overflow=hidden;whiteSpace=wrap;html=1;" vertex="1" parent="10Gnmp0NjJQ9vZ5LPBWx-82">
          <mxGeometry width="30" height="30" as="geometry">
            <mxRectangle width="30" height="30" as="alternateBounds" />
          </mxGeometry>
        </mxCell>
        <mxCell id="10Gnmp0NjJQ9vZ5LPBWx-84" value="회원 주소" style="shape=partialRectangle;connectable=0;fillColor=none;top=0;left=0;bottom=0;right=0;align=left;spacingLeft=6;overflow=hidden;whiteSpace=wrap;html=1;" vertex="1" parent="10Gnmp0NjJQ9vZ5LPBWx-82">
          <mxGeometry x="30" width="150" height="30" as="geometry">
            <mxRectangle width="150" height="30" as="alternateBounds" />
          </mxGeometry>
        </mxCell>
        <mxCell id="10Gnmp0NjJQ9vZ5LPBWx-68" value="" style="endArrow=classic;html=1;rounded=0;" edge="1" parent="1">
          <mxGeometry width="50" height="50" relative="1" as="geometry">
            <mxPoint x="180" y="2769.9950943396225" as="sourcePoint" />
            <mxPoint x="300" y="2770" as="targetPoint" />
          </mxGeometry>
        </mxCell>
      </root>
    </mxGraphModel>
  </diagram>
</mxfile>
